<?xml version="1.0" encoding="UTF-8"?>
<svg width="20px" height="22px" viewBox="0 0 20 22" version="1.1" xmlns="http://www.w3.org/2000/svg" xmlns:xlink="http://www.w3.org/1999/xlink">
    <title>trash-2</title>
    <g id="Page-1" stroke="none" strokeWidth="1" fill="none" fill-rule="evenodd" strokeLinecap="round" strokeLinejoin="round">
        <g id="iPhone-11-Copy-3" transform="translate(-109.000000, -720.000000)" strokeWidth="1.5">
            <g id="trash-2" transform="translate(110.000000, 721.000000)">
                <polyline id="Path" stroke="#9DA4B2" points="0 4 2 4 18 4"></polyline>
                <path d="M16,4 L16,18 C16,19.1045695 15.1045695,20 14,20 L4,20 C2.8954305,20 2,19.1045695 2,18 L2,4 M5,4 L5,2 C5,0.8954305 5.8954305,0 7,0 L11,0 C12.1045695,0 13,0.8954305 13,2 L13,4" id="Shape" stroke="#9DA4B2"></path>
                <line x1="7" y1="9" x2="7" y2="15" id="Path" stroke="#9DA4B2"></line>
                <line x1="11" y1="9" x2="11" y2="15" id="Path" stroke="#A0A7B5"></line>
            </g>
        </g>
    </g>
</svg>